HIERARCHY
ROOT hip
{
	OFFSET 0.000000 0.000000 0.000000 
	CHANNELS 6 Xposition Yposition Zposition Xrotation Zrotation Yrotation
	JOINT abdomen
	{
		OFFSET 0.000000 3.402643 0.000000 
		CHANNELS 3 Xrotation Zrotation Yrotation
		JOINT chest
		{
			OFFSET 0.000000 8.438565 -0.680529 
			CHANNELS 3 Xrotation Zrotation Yrotation
			JOINT neck
			{
				OFFSET 0.000000 10.207942 -0.272212 
				CHANNELS 3 Xrotation Zrotation Yrotation
				JOINT head
				{
					OFFSET 0.000000 3.130431 0.000000 
					CHANNELS 3 Xrotation Zrotation Yrotation
					End Site
					{
						OFFSET 0.000000 3.130435 0.000000 
					}
				}
			}
			JOINT lCollar
			{
				OFFSET 3.470700 6.669187 -0.816635 
				CHANNELS 3 Yrotation Zrotation Xrotation
				JOINT lShldr
				{
					OFFSET 3.198488 0.000000 0.000000 
					CHANNELS 3 Zrotation Yrotation Xrotation
					JOINT lForeArm
					{
						OFFSET 10.139888 0.000000 0.000000 
						CHANNELS 3 Yrotation Zrotation Xrotation
						JOINT lHand
						{
							OFFSET 8.370511 0.000000 0.000000 
							CHANNELS 3 Zrotation Yrotation Xrotation
							End Site
							{
								OFFSET 4.083176 0.000000 0.000000 
							}
						}
					}
				}
			}
			JOINT rCollar
			{
				OFFSET -3.470700 6.669187 -0.816635 
				CHANNELS 3 Yrotation Zrotation Xrotation
				JOINT rShldr
				{
					OFFSET -3.198488 0.000000 0.000000 
					CHANNELS 3 Zrotation Yrotation Xrotation
					JOINT rForeArm
					{
						OFFSET -10.139888 0.000000 0.000000 
						CHANNELS 3 Yrotation Zrotation Xrotation
						JOINT rHand
						{
							OFFSET -8.370511 0.000000 0.000000 
							CHANNELS 3 Zrotation Yrotation Xrotation
							End Site
							{
								OFFSET -4.083176 0.000000 0.000000 
							}
						}
					}
				}
			}
		}
	}
	JOINT lThigh
	{
		OFFSET 5.308129 -1.633274 1.361059 
		CHANNELS 3 Xrotation Zrotation Yrotation
		JOINT lShin
		{
			OFFSET -2.041588 -20.007561 0.000000 
			CHANNELS 3 Xrotation Zrotation Yrotation
			JOINT lFoot
			{
				OFFSET 0.000000 -19.190928 -1.224953 
				CHANNELS 3 Xrotation Yrotation Zrotation
				End Site
				{
					OFFSET 0.000000 -2.449906 4.627600 
				}
			}
		}
	}
	JOINT rThigh
	{
		OFFSET -5.308129 -1.633274 1.361059 
		CHANNELS 3 Xrotation Zrotation Yrotation
		JOINT rShin
		{
			OFFSET 2.041588 -20.007561 0.000000 
			CHANNELS 3 Xrotation Zrotation Yrotation
			JOINT rFoot
			{
				OFFSET 0.000000 -19.190928 -1.224953 
				CHANNELS 3 Xrotation Yrotation Zrotation
				End Site
				{
					OFFSET 0.000000 -2.449906 4.627600 
				}
			}
		}
	}
}
MOTION
Frames: 10
Frame Time: 0.011111
33.666576 58.788410 -17.287956 8.091602 4.988346 -25.813780 10.270719 -2.127940 1.472590 -27.890471 1.566942 0.744459 -9.029396 -4.068925 -1.108262 26.229174 8.463603 -1.486520 -8.555320 -1.799056 -0.578414 -0.047368 -22.276028 -19.974688 -47.551483 7.096992 7.183393 8.524705 12.647240 -77.464241 11.262407 1.069142 -1.081854 -11.612942 25.485350 -1.961194 46.001827 -6.682893 6.596966 -8.534408 -12.637552 67.279160 -5.030739 0.062384 -16.991531 20.055138 -5.786519 -3.558971 18.796024 15.755878 -6.816446 -18.151508 2.186319 16.432745 29.002605 5.393903 4.721780 21.770601 -18.948843 8.630112 
33.643024 58.796703 -17.259092 8.095745 5.002226 -25.880445 10.197330 -2.166026 1.618066 -27.831928 1.518900 0.786975 -9.116714 -3.654094 -0.908861 26.266056 8.118483 -1.046952 -8.555320 -1.799056 -0.578414 -0.032789 -22.500845 -20.270851 -47.468109 7.071644 7.146724 8.524705 12.647240 -77.806046 11.262407 1.069142 -1.081854 -11.600926 25.327734 -2.077889 45.981571 -6.679055 6.587111 -8.534408 -12.637552 67.113136 -5.141623 0.041078 -17.188568 20.239794 -5.780283 -3.574751 17.530767 17.233288 -7.141972 -18.050989 2.184844 16.666510 28.873444 5.393624 4.710351 21.803757 -19.138807 8.737230 
33.615486 58.792728 -17.236202 8.151363 4.816649 -25.956131 10.201365 -1.966253 1.816504 -27.822323 1.422310 0.820011 -9.150120 -3.583419 -0.709685 26.368713 8.265644 -0.576869 -8.555320 -1.799056 -0.578414 0.055522 -22.589890 -19.979345 -47.406136 7.055543 7.118879 8.524705 12.647240 -77.571671 11.262407 1.069142 -1.081854 -11.446844 25.306852 -2.892373 45.909031 -6.656591 6.561692 -8.534408 -12.637552 66.351425 -5.148202 0.257121 -17.245604 20.382559 -5.775939 -3.606738 16.660730 18.006323 -7.259536 -17.827438 2.410074 16.879320 28.724361 5.393507 4.697222 21.908878 -19.391459 8.875100 
33.581318 58.792061 -17.203690 8.260492 4.714930 -26.019032 10.009918 -1.853634 2.017726 -27.783298 1.384563 0.871251 -9.164270 -3.578372 -0.491223 26.552519 8.443718 -0.079477 -8.555320 -1.799056 -0.578414 0.091375 -22.590359 -19.377913 -47.426430 7.058918 7.129026 8.524705 12.647240 -77.073616 11.262407 1.069142 -1.081854 -11.407093 25.166868 -3.125716 45.856968 -6.637311 6.535288 -8.534408 -12.637552 66.146347 -5.268883 0.391914 -17.274904 20.557804 -5.765901 -3.620989 16.514172 18.030821 -7.234952 -17.709797 2.595143 17.115221 28.552559 5.413512 4.666812 21.918350 -19.581835 8.951374 
33.554443 58.786423 -17.175823 8.321895 4.666200 -26.015036 9.867892 -1.770200 2.179276 -27.793173 1.317886 0.912646 -9.038692 -3.375878 -0.287347 26.502621 8.259419 0.349276 -8.555320 -1.799056 -0.578414 0.081504 -22.648830 -18.861771 -47.457516 7.066663 7.138076 8.524705 12.647240 -76.604866 11.262407 1.069142 -1.081854 -11.456828 24.994093 -2.927756 45.827003 -6.634880 6.524037 -8.534408 -12.637552 66.253761 -5.421983 0.451620 -17.253281 20.770092 -5.767457 -3.649448 16.351486 17.987217 -7.182622 -17.583967 2.703038 17.331280 28.362658 5.422666 4.632908 22.015318 -19.832153 9.098433 
33.527905 58.786751 -17.149282 8.365952 4.509441 -26.008440 9.853931 -1.565835 2.326298 -27.851971 1.212241 0.935005 -8.911681 -2.973169 -0.123938 26.419334 7.812005 0.713594 -8.555320 -1.799056 -0.578414 0.108237 -22.658949 -18.291071 -47.478703 7.076622 7.155373 8.524705 12.647240 -75.950577 11.262407 1.069142 -1.081854 -11.473077 24.907093 -3.053015 45.754490 -6.612213 6.498760 -8.534408 -12.637552 66.009621 -5.494114 0.616148 -17.247450 20.946844 -5.751606 -3.652992 16.165745 18.064108 -7.180631 -17.388971 2.908358 17.603241 28.201317 5.433204 4.630225 22.103838 -20.138781 9.234549 
33.501698 58.779118 -17.122410 8.432052 4.354793 -26.060520 9.781768 -1.368999 2.473373 -27.910696 1.145674 0.956017 -8.891784 -2.575564 0.079446 26.671291 7.362324 1.152962 -8.555320 -1.799056 -0.578414 0.127074 -22.600603 -17.672964 -47.509796 7.084334 7.165649 8.524705 12.647240 -75.325577 11.262407 1.069142 -1.081854 -11.474602 24.789650 -2.902587 45.774734 -6.616127 6.508565 -8.534408 -12.637552 66.068222 -5.489479 0.754237 -17.002583 21.037716 -5.750388 -3.681066 17.148062 16.920198 -6.971554 -17.225136 3.124903 17.589399 28.124289 5.422157 4.601184 22.057934 -20.074251 9.208928 
33.483452 58.761871 -17.095871 8.418773 4.270710 -26.122280 9.749354 -1.247929 2.597113 -27.940060 1.107924 0.976530 -8.982581 -2.472327 0.297213 27.082920 7.226274 1.618439 -8.555320 -1.799056 -0.578414 0.091677 -22.570829 -17.288067 -47.520386 7.089303 7.174306 8.524705 12.647240 -75.013069 11.262407 1.069142 -1.081854 -11.507065 24.615646 -2.467908 45.909031 -6.656591 6.561692 -8.534408 -12.637552 66.322128 -5.409845 0.773843 -16.753504 21.068981 -5.744572 -3.702167 18.279581 15.374376 -6.589547 -17.044947 3.238462 17.460896 28.112450 5.432909 4.602869 21.963425 -19.932213 9.123788 
33.464870 58.750259 -17.055729 8.372166 4.333613 -26.162737 9.688017 -1.291795 2.653274 -27.891275 1.078593 0.998152 -9.183254 -2.454773 0.467455 27.401577 7.299633 1.990180 -8.555320 -1.799056 -0.578414 0.091525 -22.580597 -17.180645 -47.478703 7.076622 7.155373 8.524705 12.647240 -74.974007 11.262407 1.069142 -1.081854 -11.540357 24.431913 -2.156060 46.001827 -6.682893 6.596966 -8.534408 -12.637552 66.478378 -5.294761 0.676324 -16.821175 21.047819 -5.750494 -3.681963 18.212637 15.261998 -6.545879 -16.967604 3.199649 17.385637 28.141792 5.437693 4.596893 21.879005 -19.990044 9.139929 
33.436008 58.741299 -17.003975 8.395832 4.361896 -26.198380 9.536921 -1.292512 2.752526 -27.862122 1.001166 1.031039 -9.324822 -2.295675 0.590095 27.617422 7.311654 2.300730 -8.555320 -1.799056 -0.578414 0.097908 -22.746712 -17.540560 -47.312889 7.032174 7.090615 8.524705 12.647240 -75.501358 11.262407 1.069142 -1.081854 -11.513065 24.243839 -2.065263 46.042545 -6.689948 6.606938 -8.534408 -12.637552 66.654160 -5.187747 0.676116 -16.946585 20.944435 -5.760889 -3.654533 18.153362 15.236123 -6.525159 -16.949268 3.249465 17.314783 28.232893 5.427008 4.612843 21.664425 -20.081604 9.132441 
